# xmcd CD database file
#
# Track frame offsets:
#	150
#	7630
#	21104
#	32097
#	54092
#	77653
#	96569
#	122841
#	142798
#	163396
#
# Disc length: 2519 seconds
#
# Revision: 0
# Processed by: cddbd v1.5.2PL0 Copyright (c) Steve Scherf et al.
# Submitted via: CDex 1.70beta2
#
DISCID=7109d50a
DTITLE=Afenginn - Opus
DYEAR=2015
DGENRE=Jazz
TTITLE0=Intro
TTITLE1=Bordrone
TTITLE2=Guzzy
TTITLE3=Luna Televiso
TTITLE4=Quicksilver
TTITLE5=Plantaris
TTITLE6=Lentoperho
TTITLE7=Vespersong
TTITLE8=Partiro Futile
TTITLE9=Gronja
EXTD=YEAR: 2015
EXTT0=
EXTT1=
EXTT2=
EXTT3=
EXTT4=
EXTT5=
EXTT6=
EXTT7=
EXTT8=
EXTT9=
PLAYORDER=
